<?xml version="1.0" standalone="no"?>
<!DOCTYPE svg PUBLIC "-//W3C//DTD SVG 20010904//EN"
 "http://www.w3.org/TR/2001/REC-SVG-20010904/DTD/svg10.dtd">
<svg version="1.0" xmlns="http://www.w3.org/2000/svg"
 width="260.000000pt" height="260.000000pt" viewBox="0 0 260.000000 260.000000"
 preserveAspectRatio="xMidYMid meet">
<metadata>
Created by potrace 1.14, written by Peter Selinger 2001-2017
</metadata>
<g transform="translate(0.000000,260.000000) scale(0.100000,-0.100000)"
fill="#000000" stroke="none">
<path d="M1586 2231 l-209 -120 -32 24 c-17 14 -35 23 -38 20 -4 -3 -5 -2 -2
1 7 10 -22 34 -40 34 -9 0 -14 4 -10 9 6 11 -23 29 -67 41 -21 7 -27 6 -21 -3
5 -9 3 -9 -8 -1 -13 10 -21 9 -74 -10 -11 -4 -33 -25 -50 -47 -16 -21 -45 -55
-63 -76 -17 -21 -30 -44 -27 -51 3 -7 1 -11 -4 -8 -5 3 -14 -1 -21 -9 -7 -8
-10 -15 -6 -15 3 0 -2 -8 -11 -18 -65 -67 -75 -83 -62 -100 11 -14 11 -15 0
-5 -11 9 -18 7 -34 -7 -17 -17 -21 -17 -34 -4 -15 15 -38 10 -28 -7 4 -5 8 -9
11 -9 3 0 2 5 -2 12 -4 7 -3 8 4 4 9 -5 8 -12 0 -26 -7 -11 -14 -17 -17 -15
-6 6 -31 -15 -31 -26 0 -11 40 10 58 31 11 13 11 12 2 -7 -6 -13 -18 -23 -26
-23 -8 0 -12 -5 -9 -10 3 -6 -1 -13 -9 -16 -9 -3 -13 -10 -10 -15 3 -5 -2 -12
-10 -15 -9 -3 -13 -10 -10 -15 3 -5 0 -8 -8 -7 -7 2 -12 -3 -10 -10 1 -7 -5
-15 -13 -18 -8 -3 -12 -10 -9 -15 3 -5 0 -8 -8 -7 -7 2 -12 -5 -11 -15 0 -10
-2 -16 -5 -13 -3 3 -16 -11 -29 -32 -14 -20 -22 -29 -19 -20 3 11 -5 24 -23
38 -36 25 -57 26 -34 1 10 -10 22 -18 28 -17 5 1 10 -10 11 -24 2 -28 -22 -73
-36 -65 -5 3 -11 1 -15 -5 -3 -5 -1 -10 4 -10 6 0 11 -5 11 -11 0 -8 -6 -7
-17 2 -15 12 -16 12 -10 -3 3 -10 2 -18 -4 -18 -6 0 -7 -5 -3 -12 4 -7 3 -8
-4 -4 -11 6 -16 -6 -13 -26 0 -5 -5 -7 -12 -5 -6 1 -11 -6 -11 -15 1 -10 -1
-16 -5 -15 -3 1 -6 -1 -6 -4 0 -17 -40 -49 -55 -44 -11 3 -17 0 -17 -10 0 -10
6 -14 15 -10 12 4 13 3 2 -10 -7 -8 -19 -15 -27 -15 -10 0 -13 -6 -9 -16 4
-10 2 -13 -6 -8 -8 5 -9 2 -5 -9 4 -10 2 -16 -5 -14 -7 1 -12 -5 -13 -13 0 -9
-8 -14 -20 -12 -16 3 -17 1 -7 -11 10 -11 9 -17 -5 -28 -16 -12 -17 -12 -6 2
13 16 8 29 -10 29 -6 0 -7 -3 -4 -7 4 -3 0 -18 -9 -31 -14 -21 -14 -24 -1 -19
11 4 13 0 9 -15 -3 -13 -7 -16 -12 -8 -5 8 -10 9 -14 2 -4 -6 2 -15 11 -21 11
-6 13 -11 5 -11 -10 0 -10 -5 -2 -21 7 -11 9 -23 6 -27 -3 -3 -6 0 -6 7 0 7
-5 9 -10 6 -6 -4 -7 -11 -4 -17 4 -7 2 -8 -4 -4 -7 4 -12 2 -12 -5 0 -6 8 -9
19 -6 15 3 18 1 14 -11 -4 -10 -2 -13 5 -8 6 3 16 -3 22 -15 10 -17 9 -20 -1
-14 -9 6 -11 3 -6 -8 3 -9 2 -19 -4 -22 -5 -4 -7 -11 -4 -16 4 -5 1 -9 -4 -9
-6 0 -11 -4 -11 -8 0 -4 9 -8 20 -8 13 0 18 5 15 16 -6 20 6 37 28 37 12 0 14
-4 7 -11 -17 -17 -11 -29 7 -15 11 10 14 10 9 2 -4 -8 -2 -13 7 -13 8 0 29
-13 46 -29 18 -17 34 -30 37 -30 3 1 9 -3 12 -7 4 -4 1 -4 -5 0 -18 10 -16 -6
2 -30 11 -14 14 -15 9 -3 -7 23 9 31 31 15 14 -10 15 -15 5 -21 -8 -5 -11 -4
-7 2 4 6 0 13 -8 17 -18 6 -19 1 -4 -25 8 -15 14 -18 24 -9 10 8 17 6 31 -7
10 -10 21 -18 26 -18 13 0 28 -27 21 -38 -3 -5 4 -6 15 -3 13 4 22 1 26 -9 3
-10 11 -13 18 -9 10 6 11 4 1 -7 -18 -18 -16 -34 2 -19 11 9 19 9 35 -3 18
-12 18 -15 5 -20 -8 -4 -15 -12 -15 -18 0 -8 5 -7 17 2 11 10 14 10 9 2 -9
-15 5 -17 22 -3 6 6 10 7 7 4 -7 -10 22 -34 40 -34 12 0 15 -5 9 -22 -6 -19
-4 -21 7 -11 10 8 20 9 29 3 10 -7 11 -10 3 -10 -7 0 -13 -4 -13 -9 0 -4 10
-8 22 -7 11 0 23 -6 25 -14 3 -9 1 -11 -4 -4 -5 7 -14 4 -26 -8 -17 -18 -17
-19 8 -15 15 2 31 10 36 18 7 12 9 12 10 -1 1 -8 0 -22 -1 -29 -1 -12 1 -13
13 -2 13 10 19 9 36 -6 41 -37 56 -48 64 -45 5 1 6 -2 2 -8 -5 -9 6 -14 26
-12 3 1 6 -11 5 -25 -1 -15 4 -28 11 -30 8 -3 11 3 8 17 -3 18 -2 20 10 10 8
-7 13 -16 10 -20 -7 -12 32 -56 42 -47 4 5 0 13 -10 18 -9 6 -17 14 -17 20 0
5 10 1 22 -11 17 -15 19 -23 10 -32 -8 -8 -15 -8 -27 2 -13 11 -15 9 -12 -11
2 -14 12 -25 23 -27 16 -3 17 -1 4 8 -12 9 -10 10 9 5 13 -4 21 -3 18 2 -3 5
-2 15 4 23 6 11 9 12 9 2 0 -8 5 -10 13 -6 6 4 9 4 5 -1 -8 -8 15 -35 30 -35
5 0 15 -7 22 -15 7 -8 17 -12 24 -8 6 3 8 3 4 -2 -4 -4 4 -16 17 -27 14 -11
23 -24 20 -29 -10 -16 -25 -10 -37 16 -6 13 -15 22 -20 19 -5 -3 -4 -12 3 -20
12 -14 3 -19 -29 -15 -10 2 -10 -2 -1 -17 10 -16 15 -18 26 -7 15 15 56 8 50
-9 -3 -7 0 -19 7 -27 19 -27 120 -45 144 -27 6 6 12 7 12 4 0 -4 14 2 30 14
27 19 45 60 20 45 -6 -4 -8 -11 -5 -16 3 -5 -2 -6 -12 -3 -15 5 -16 4 -3 -5
13 -9 13 -11 -2 -11 -10 0 -18 -6 -18 -12 0 -9 -4 -8 -10 2 -9 13 -10 13 -10
0 0 -13 -1 -13 -10 0 -9 14 -14 7 -11 -13 1 -5 -12 0 -29 10 -25 15 -32 15
-39 4 -6 -9 -11 -10 -15 -2 -4 6 -12 9 -17 6 -5 -4 -9 -3 -10 2 0 4 -2 18 -3
30 -1 12 2 28 7 35 6 9 7 8 3 -5 -5 -15 -2 -17 14 -12 12 4 20 2 20 -5 0 -6
-4 -9 -9 -6 -5 3 -14 0 -20 -7 -8 -11 -5 -14 18 -14 16 0 28 5 27 11 -2 6 -1
8 1 3 3 -4 9 -5 14 -2 5 4 6 -2 2 -12 -6 -16 -4 -16 18 2 l24 20 -19 -22 c-11
-13 -14 -23 -8 -23 7 0 17 9 24 19 11 18 13 18 26 3 13 -16 13 -16 8 1 -3 10
-2 15 4 12 5 -3 18 3 28 13 13 13 22 16 28 8 5 -6 8 -9 7 -7 -2 2 3 11 10 19
10 13 9 14 -2 7 -8 -5 -2 8 13 28 16 20 26 43 23 51 -4 10 -1 13 7 10 7 -3 25
14 42 38 16 24 37 52 48 63 10 11 25 30 33 42 8 12 208 133 445 270 476 275
482 279 482 367 0 46 -10 67 -101 226 -55 96 -111 195 -125 220 -14 25 -93
162 -174 305 -82 143 -157 276 -168 296 -58 110 -102 150 -173 156 -46 4 -56
-1 -257 -116z m-418 -96 c-3 -3 -9 2 -12 12 -6 14 -5 15 5 6 7 -7 10 -15 7
-18z m-4 -41 c3 -8 2 -12 -4 -9 -6 3 -10 10 -10 16 0 14 7 11 14 -7z m-156
-19 c-3 -3 -9 2 -12 12 -6 14 -5 15 5 6 7 -7 10 -15 7 -18z m80 -100 c-3 -3
-9 2 -12 12 -6 14 -5 15 5 6 7 -7 10 -15 7 -18z m-184 -13 c3 -5 -1 -9 -9 -9
-8 0 -12 4 -9 9 3 4 7 8 9 8 2 0 6 -4 9 -8z m66 -2 c0 -5 -5 -10 -11 -10 -5 0
-7 5 -4 10 3 6 8 10 11 10 2 0 4 -4 4 -10z m60 0 c0 -5 -5 -10 -11 -10 -5 0
-7 5 -4 10 3 6 8 10 11 10 2 0 4 -4 4 -10z"/>
<path d="M450 1951 c0 -4 -14 -12 -31 -20 -34 -15 -32 -23 7 -27 20 -2 23 0
15 10 -8 10 -4 16 15 25 15 6 29 9 32 6 3 -3 0 -5 -7 -5 -9 0 -9 -4 1 -14 15
-16 21 -13 25 12 2 14 -4 18 -27 18 -17 0 -30 -2 -30 -5z"/>
<path d="M519 1942 c-1 -4 -1 -10 -1 -14 1 -3 -5 -11 -12 -17 -10 -8 -17 -7
-26 4 -18 21 -32 19 -25 -5 6 -19 3 -20 -38 -15 -37 4 -46 2 -52 -12 -15 -39
-14 -59 4 -70 16 -10 19 -8 19 13 0 18 -4 22 -13 14 -8 -7 -12 -5 -12 5 0 8 5
11 10 8 6 -4 8 0 4 9 -8 21 3 30 20 17 9 -9 13 -8 13 0 0 6 5 11 11 11 5 0 7
-4 4 -10 -9 -14 19 -12 33 2 9 9 12 9 12 0 0 -7 5 -12 11 -12 8 0 8 5 -1 15
-9 10 -9 15 -1 15 6 0 11 -5 11 -12 0 -6 9 -3 20 7 12 11 18 25 15 34 -5 13
-4 13 6 4 10 -10 9 -15 -1 -28 -11 -13 -9 -15 11 -11 13 3 26 5 29 5 3 1 -1 5
-9 10 -7 5 -10 14 -7 20 4 6 12 9 17 5 5 -3 7 -10 4 -15 -4 -5 4 -8 17 -6 19
2 22 -2 20 -23 -4 -24 -3 -25 12 -5 l16 20 16 -20 c16 -20 16 -20 11 2 -3 15
-1 20 9 16 9 -3 11 -10 5 -22 -11 -20 -69 -20 -82 0 -7 11 -9 11 -9 -3 0 -9 4
-19 9 -22 16 -10 20 -46 6 -59 -11 -11 -9 -16 7 -26 18 -11 20 -11 15 1 -3 8
-1 21 4 29 8 12 10 12 18 0 5 -8 7 -21 4 -30 -5 -13 -3 -14 8 -3 7 6 17 12 23
12 5 0 -5 -11 -22 -24 -30 -21 -31 -24 -12 -29 11 -3 18 -1 15 3 -3 5 5 17 18
27 15 12 23 27 22 43 -2 27 28 74 40 62 4 -4 0 5 -9 20 -11 16 -23 25 -32 21
-8 -3 -14 0 -14 5 0 6 -13 9 -30 7 -16 -2 -30 0 -30 4 0 14 -109 36 -111 23z
m190 -68 c4 3 8 -1 8 -8 0 -8 -6 -12 -14 -9 -9 4 -11 0 -7 -11 4 -10 0 -18
-10 -22 -9 -3 -13 -10 -10 -15 3 -5 11 -6 17 -3 8 4 7 2 -1 -7 -11 -12 -14
-12 -21 0 -5 8 -5 23 0 35 5 12 12 30 16 41 4 11 8 14 11 7 2 -7 7 -10 11 -8z
m-53 -25 c10 -17 -13 -36 -27 -22 -12 12 -4 33 11 33 5 0 12 -5 16 -11z"/>
<path d="M630 1840 c0 -5 5 -10 10 -10 6 0 10 5 10 10 0 6 -4 10 -10 10 -5 0
-10 -4 -10 -10z"/>
<path d="M575 1897 c-10 -8 -14 -16 -9 -19 5 -3 17 3 27 14 20 21 9 24 -18 5z"/>
<path d="M500 1875 c-7 -9 -20 -13 -29 -10 -22 7 -42 -8 -32 -24 5 -7 12 -13
17 -14 5 -1 8 -9 7 -17 -1 -9 6 -16 18 -17 18 -2 19 0 7 14 -9 12 -10 15 0 9
6 -4 12 -3 12 3 0 6 -12 17 -27 25 l-28 14 25 0 c14 1 37 3 53 5 15 3 27 1 27
-4 0 -6 5 -7 10 -4 6 4 10 3 9 -2 -3 -19 2 -27 10 -14 7 10 9 7 8 -12 -1 -14
-5 -23 -8 -21 -12 7 -18 -23 -7 -34 8 -8 8 -15 -1 -25 -9 -12 -7 -14 13 -14
22 0 23 1 10 25 -11 23 -11 29 3 44 9 10 11 18 5 18 -6 0 -9 6 -6 13 2 7 -9
23 -26 35 -16 13 -30 17 -30 11 0 -9 -3 -9 -14 0 -10 9 -16 8 -26 -4z"/>
<path d="M389 1862 c7 -12 17 -20 24 -17 7 4 4 0 -6 -8 -16 -13 -16 -15 -2
-21 11 -4 14 -13 11 -24 -10 -29 24 -23 35 6 5 14 7 27 4 30 -3 3 -5 0 -5 -6
0 -7 -5 -12 -11 -12 -5 0 -8 3 -5 8 2 4 -2 18 -10 32 -7 14 -13 21 -14 16 0
-5 -7 -2 -17 5 -15 13 -15 12 -4 -9z"/>
<path d="M502 1851 c-18 -11 9 -34 31 -25 8 3 18 1 22 -5 4 -7 -1 -9 -12 -5
-14 5 -15 4 -4 -4 7 -5 10 -15 6 -21 -4 -7 -2 -18 5 -26 9 -11 6 -16 -12 -26
-35 -18 -54 -55 -23 -43 8 4 12 11 9 16 -4 6 1 6 13 -1 11 -6 23 -7 27 -4 3 3
6 0 6 -8 0 -12 2 -11 11 1 8 12 9 11 5 -6 -5 -15 -2 -21 11 -21 24 0 55 39 40
49 -21 13 -29 9 -22 -12 4 -12 2 -20 -5 -20 -6 0 -9 4 -6 9 3 5 -1 14 -9 21
-12 10 -15 10 -15 0 0 -10 -3 -10 -15 0 -12 10 -13 16 -4 27 9 10 9 17 1 25
-8 8 -8 17 -1 30 11 21 -6 53 -22 42 -5 -3 -9 0 -9 5 0 13 -10 14 -28 2z"/>
<path d="M339 1798 c0 -7 -2 -20 -4 -28 -1 -9 10 -23 27 -33 22 -13 29 -14 25
-4 -3 8 -1 20 4 28 7 12 9 12 9 0 0 -8 3 -11 6 -8 4 4 1 13 -6 22 -8 10 -9 15
-1 15 6 0 11 5 11 11 0 8 -4 8 -14 0 -10 -8 -16 -9 -21 -1 -9 14 -35 13 -36
-2z m34 -35 c-4 -10 -9 -11 -19 -2 -11 9 -12 15 -3 26 14 17 31 -1 22 -24z"/>
<path d="M505 1800 c3 -5 13 -10 21 -10 8 0 12 5 9 10 -3 6 -13 10 -21 10 -8
0 -12 -4 -9 -10z"/>
<path d="M457 1779 c-9 -6 -17 -15 -17 -22 0 -7 4 -6 10 3 7 11 10 11 10 2 0
-7 5 -10 10 -7 6 4 7 11 4 17 -4 7 -2 8 5 4 9 -6 9 -11 0 -22 -9 -11 -8 -18 1
-30 11 -12 11 -15 0 -12 -7 2 -15 -3 -17 -10 -4 -11 -1 -12 15 -3 11 6 23 20
27 31 3 11 9 19 13 19 36 -6 37 12 0 32 -17 9 -19 8 -14 -8 3 -10 1 -25 -5
-33 -8 -12 -9 -11 -4 6 7 27 -14 46 -38 33z"/>
<path d="M416 1754 c-3 -8 -11 -12 -17 -9 -6 4 -5 -2 2 -13 15 -24 22 -21 26
13 4 28 -2 33 -11 9z"/>
<path d="M600 1763 c0 -19 18 -25 37 -13 15 9 15 11 2 7 -9 -3 -22 0 -28 6 -8
8 -11 8 -11 0z"/>
<path d="M440 1740 c-8 -6 -11 -10 -6 -10 5 0 3 -7 -4 -14 -8 -11 -9 -20 -1
-33 8 -14 10 -15 11 -3 0 13 2 13 11 0 9 -12 10 -12 5 4 -4 10 -2 24 3 30 14
17 -1 37 -19 26z m20 -14 c0 -2 -8 -10 -17 -17 -16 -13 -17 -12 -4 4 13 16 21
21 21 13z"/>
<path d="M325 1731 c3 -5 1 -12 -5 -16 -13 -8 -13 -25 1 -25 5 0 7 4 4 10 -3
6 1 7 10 4 11 -5 14 -2 9 12 -5 15 -4 16 4 4 6 -8 8 -18 6 -22 -3 -4 0 -8 6
-8 7 0 10 7 6 18 -5 14 -4 14 9 -2 8 -11 15 -23 15 -27 0 -4 9 -11 21 -14 16
-5 19 -12 15 -31 -5 -18 -3 -22 8 -18 8 3 14 11 12 17 -1 7 -1 8 2 4 2 -4 10
0 17 10 11 15 15 16 31 3 16 -13 17 -13 11 2 -12 33 22 37 56 7 22 -20 33 -25
38 -17 11 17 -2 33 -12 17 -7 -11 -10 -9 -15 8 -7 26 -30 36 -51 24 -9 -4 -25
-6 -37 -4 -17 4 -18 3 -6 -6 13 -10 13 -11 0 -12 -8 0 -23 -2 -33 -4 -11 -2
-23 7 -33 27 -8 16 -18 27 -21 24 -3 -3 -15 1 -27 9 -23 17 -50 20 -41 6z"/>
<path d="M314 1673 c-11 -12 -12 -18 -3 -29 16 -20 22 -17 16 6 -3 11 0 23 5
27 7 4 8 1 3 -7 -5 -9 -2 -10 11 -6 11 3 26 1 34 -5 12 -8 9 -9 -9 -4 -17 5
-22 4 -16 -5 5 -8 4 -11 -2 -7 -6 4 -14 0 -17 -9 -5 -12 -2 -15 11 -9 32 12
38 10 36 -12 -2 -13 2 -21 10 -19 6 1 8 1 4 -2 -4 -2 0 -10 10 -18 17 -13 17
-15 0 -28 -10 -8 -14 -16 -10 -18 10 -6 -12 0 -32 8 -11 4 -13 2 -9 -10 3 -8
11 -14 16 -13 17 3 19 -17 4 -38 -11 -16 -17 -17 -29 -7 -12 10 -14 8 -14 -12
0 -22 1 -23 24 -11 14 8 33 11 42 7 14 -5 14 -3 3 10 -9 11 -10 18 -2 23 6 3
8 10 5 15 -3 4 1 10 9 13 8 3 13 20 13 44 -1 34 2 38 22 36 12 -2 20 1 16 6
-3 5 -1 12 4 15 5 4 13 1 17 -5 3 -6 0 -15 -7 -20 -8 -5 -12 -9 -9 -10 3 0 16
-2 29 -5 21 -4 22 -2 11 11 -11 13 -10 19 5 33 18 16 18 16 6 -1 -16 -21 -9
-34 8 -14 6 8 8 22 5 32 -5 13 -9 14 -15 3 -6 -10 -11 -10 -21 0 -16 16 -28
15 -28 -1 0 -18 -43 -37 -59 -27 -9 5 -10 9 -2 14 18 11 13 26 -14 38 -13 6
-23 14 -21 17 9 13 -46 8 -60 -6z"/>
<path d="M295 1622 c2 -9 4 -21 4 -25 1 -5 6 -5 11 -2 6 4 7 12 3 18 -3 7 3 4
14 -6 16 -14 22 -15 27 -5 3 7 4 4 1 -8 -3 -13 0 -21 8 -21 8 0 14 12 14 29 0
16 -3 25 -6 21 -8 -12 -32 -10 -58 4 -18 11 -21 10 -18 -5z"/>
<path d="M540 1608 c-8 -13 -14 -27 -15 -33 0 -15 -37 -13 -63 3 -12 8 -25 12
-29 8 -3 -3 -1 -6 5 -6 6 0 9 -8 6 -17 -5 -15 -4 -16 5 -3 7 9 11 11 11 3 0
-7 -8 -17 -17 -22 -11 -6 -13 -11 -5 -11 7 0 25 7 40 16 18 11 22 12 10 2 -10
-8 -14 -19 -10 -23 4 -5 2 -5 -4 -2 -7 4 -15 0 -18 -9 -5 -12 -2 -15 11 -10
17 6 17 5 1 -8 -10 -7 -18 -18 -18 -25 0 -6 -5 -11 -10 -11 -7 0 -7 6 0 20 8
15 8 20 -2 20 -9 0 -9 3 2 10 8 5 10 10 4 10 -7 0 -19 -11 -28 -25 -15 -23
-15 -26 -1 -31 14 -6 13 -8 -2 -21 -10 -8 -12 -11 -4 -7 10 5 12 3 6 -6 -5 -8
-3 -11 4 -9 7 3 12 8 12 11 0 4 13 21 30 39 16 17 29 39 29 49 0 15 19 31 42
34 13 2 19 14 23 45 5 37 4 37 -15 9z"/>
<path d="M282 1588 c-1 -21 -12 -70 -27 -120 -7 -25 -11 -49 -8 -52 4 -3 1 -6
-5 -6 -7 0 -12 -9 -12 -21 0 -11 5 -17 10 -14 6 4 7 11 4 17 -4 6 -2 8 3 5 6
-4 13 0 17 8 3 8 0 15 -7 15 -7 0 -8 3 -2 8 11 8 18 27 19 53 0 9 7 15 16 14
8 -2 19 -4 23 -4 5 -1 5 -6 1 -12 -4 -8 -9 -7 -15 2 -5 8 -9 9 -9 3 0 -20 26
-48 34 -36 4 7 2 12 -5 12 -8 0 -8 4 1 15 10 12 16 13 27 3 11 -9 16 -9 24 3
5 8 8 19 8 24 0 6 -3 4 -6 -2 -2 -7 -8 -13 -12 -13 -4 0 -8 6 -8 13 0 6 -4 20
-8 30 -6 15 -4 18 11 17 34 -4 54 0 54 10 0 14 -27 12 -33 -2 -4 -10 -6 -10
-6 0 -1 7 -5 11 -10 7 -6 -3 -15 4 -21 16 -14 25 -34 12 -24 -15 5 -14 9 -15
15 -4 5 8 9 9 9 2 0 -6 -7 -17 -15 -24 -8 -7 -15 -17 -15 -22 0 -6 8 -4 17 3
11 10 14 10 9 2 -4 -8 -2 -13 6 -13 9 0 9 -3 -2 -10 -21 -13 -48 14 -32 32 7
9 8 19 2 28 -6 8 -10 13 -11 10 -7 -43 -10 -55 -15 -59 -8 -9 0 42 10 57 5 8
4 18 -1 23 -6 6 -10 5 -11 -3z"/>
<path d="M276 1453 c-3 -8 -1 -11 4 -8 10 6 13 -5 11 -40 -1 -19 -1 -19 9 -2
6 9 15 15 21 12 17 -11 9 4 -15 28 -20 20 -26 22 -30 10z"/>
<path d="M372 1429 c-11 -17 -10 -20 4 -17 9 2 19 -4 21 -12 4 -13 3 -13 -6 0
-7 9 -11 10 -11 3 0 -19 21 -27 34 -12 6 8 9 13 7 11 -2 -1 -12 9 -21 22 -16
25 -16 25 -28 5z"/>
<path d="M340 1420 c-7 -12 -16 -18 -23 -13 -7 4 -7 0 2 -10 18 -22 32 -22 25
1 -5 13 -4 14 4 3 15 -20 4 -40 -19 -36 -13 3 -19 0 -16 -8 2 -7 13 -11 23 -9
16 2 16 1 4 -7 -8 -6 -15 -16 -15 -23 -1 -7 -6 -12 -13 -11 -13 3 -11 -31 2
-44 4 -5 6 -3 5 2 -2 6 2 20 9 31 6 12 9 24 6 27 -3 3 3 8 13 11 20 6 27 56
11 72 -4 4 -3 13 3 21 8 9 8 13 1 13 -6 0 -16 -9 -22 -20z"/>
<path d="M270 1399 c0 -9 -11 -22 -25 -29 -14 -7 -23 -16 -20 -18 3 -3 0 -11
-6 -19 -6 -7 -8 -13 -4 -13 4 0 2 -7 -5 -15 -7 -8 -10 -22 -6 -30 3 -8 0 -15
-6 -15 -7 0 -3 -6 8 -14 10 -8 21 -12 24 -10 2 3 -2 9 -10 14 -12 8 -12 10 -1
10 11 0 11 3 0 17 -12 14 -12 16 0 8 11 -6 13 -4 8 8 -3 8 1 21 9 28 8 7 13
18 10 26 -3 8 -2 12 3 9 5 -3 12 1 15 10 3 8 10 13 15 10 14 -9 20 -45 9 -53
-6 -3 -8 -1 -5 4 4 6 0 13 -8 17 -16 6 -19 -2 -7 -21 9 -15 50 -13 48 2 -1 5
-5 16 -9 23 -10 15 1 34 15 26 7 -5 8 -2 4 5 -5 7 -14 10 -22 7 -7 -3 -18 3
-23 12 -9 15 -10 15 -11 1z"/>
<path d="M243 1318 c-5 -7 -8 -29 -7 -48 2 -45 -3 -52 -27 -40 -18 10 -24 3
-20 -23 1 -4 -4 -17 -10 -29 -9 -16 -8 -22 2 -29 21 -13 29 -11 23 6 -4 8 -11
12 -18 8 -6 -3 -2 4 9 16 16 19 17 24 5 31 -9 6 -10 10 -3 10 19 0 26 -20 13
-36 -11 -12 -9 -14 8 -11 24 3 42 17 24 17 -7 0 -12 5 -12 11 0 5 4 8 9 4 6
-3 15 4 21 15 6 11 7 20 3 20 -4 0 4 10 16 22 23 20 23 22 5 35 -10 7 -22 13
-27 13 -4 0 -5 5 -2 10 9 14 -1 12 -12 -2z m22 -26 c-3 -3 -11 0 -18 7 -9 10
-8 11 6 5 10 -3 15 -9 12 -12z m5 -23 c0 -4 -6 -9 -13 -12 -8 -3 -14 0 -14 7
0 7 6 13 14 13 7 0 13 -4 13 -8z m-17 -44 c-3 -9 -8 -14 -10 -11 -3 3 -2 9 2
15 9 16 15 13 8 -4z"/>
<path d="M217 1164 c-3 -3 -3 -13 0 -21 5 -13 1 -15 -20 -9 -26 6 -46 -7 -27
-19 5 -3 10 -1 10 5 0 7 6 8 18 1 12 -7 17 -20 16 -46 -1 -21 3 -38 11 -41 7
-3 12 -15 11 -27 -1 -12 3 -26 9 -30 5 -5 0 -5 -12 -2 -18 5 -22 3 -17 -9 3
-9 10 -13 15 -10 5 3 6 -1 3 -9 -3 -8 2 -14 11 -14 10 0 14 6 10 14 -3 8 0 24
7 36 6 12 13 33 14 47 3 21 1 22 -7 7 -6 -9 -8 -21 -4 -26 3 -5 1 -12 -4 -15
-5 -4 -8 6 -6 21 2 19 -3 33 -18 45 -20 16 -21 17 -4 36 19 21 22 32 6 32 -5
0 -7 -5 -3 -12 5 -7 3 -8 -6 -3 -10 6 -10 11 4 20 13 10 14 14 3 24 -8 6 -16
8 -20 5z"/>
<path d="M163 1092 c9 -13 9 -14 0 -8 -12 7 -18 -5 -14 -28 1 -4 -3 -13 -8
-20 -5 -6 -11 -24 -12 -41 -2 -16 -8 -33 -14 -37 -6 -4 -2 -8 9 -8 13 0 16 5
12 18 -5 14 -4 14 9 -2 8 -11 18 -17 22 -13 3 4 -1 15 -9 24 -17 20 -21 56 -5
46 6 -4 7 -1 2 7 -5 9 -4 11 4 6 14 -9 11 15 -4 27 -6 5 -1 6 10 2 26 -9 42
-13 33 -8 -4 2 -4 12 -1 21 4 15 3 15 -6 2 -7 -9 -11 -11 -11 -3 0 7 8 16 18
22 14 8 11 10 -15 9 -28 -1 -31 -3 -20 -16z"/>
<path d="M173 1043 c4 -3 0 -15 -10 -25 -15 -17 -15 -19 1 -37 19 -21 13 -46
-9 -37 -7 2 -16 -2 -19 -10 -8 -21 -8 -24 5 -24 5 0 8 4 4 9 -3 6 6 8 20 5 14
-2 25 -1 24 3 -1 5 -1 17 0 28 1 16 3 17 11 5 5 -8 6 -17 2 -20 -22 -16 -8
-28 32 -27 24 1 42 5 40 8 -2 3 8 5 21 4 13 -2 23 2 22 8 -1 6 9 11 23 11 27
0 35 -26 15 -53 -8 -11 -6 -13 5 -9 8 3 14 15 13 27 -3 25 9 27 28 4 12 -14
12 -16 0 -9 -9 6 -12 5 -9 -5 3 -8 12 -13 19 -11 8 2 11 0 7 -4 -4 -4 0 -13
10 -21 16 -12 16 -13 -2 -6 -14 5 -17 3 -11 -7 5 -8 1 -18 -10 -27 -18 -12
-17 -13 8 -11 18 2 26 7 22 16 -2 7 0 10 5 7 17 -10 11 11 -14 55 -25 45 -60
75 -76 65 -6 -3 -10 -1 -10 4 0 6 -6 10 -12 9 -7 -2 -12 5 -12 14 1 10 -2 15
-7 12 -5 -3 -6 -17 -3 -31 6 -22 4 -24 -13 -19 -13 4 -23 1 -26 -8 -8 -21 -37
-13 -52 14 -14 26 -8 71 6 48 7 -10 9 -10 9 0 0 15 -36 52 -52 52 -6 0 -8 -3
-5 -7z m30 -19 c-7 -3 -10 -11 -7 -19 7 -17 -8 -26 -25 -16 -10 6 -9 12 4 25
9 9 22 16 28 15 9 0 9 -2 0 -5z"/>
<path d="M110 920 c0 -11 0 -23 1 -26 0 -4 -4 -10 -10 -13 -6 -4 -11 -22 -12
-41 -2 -19 -7 -41 -12 -47 -11 -15 -13 -15 46 -19 26 -1 47 2 47 7 0 6 -4 8
-9 4 -17 -10 -25 18 -9 29 13 9 13 13 2 24 -7 7 -11 19 -7 28 5 14 3 14 -15 3
-16 -10 -18 -15 -7 -26 19 -18 7 -52 -17 -50 -19 1 -19 2 0 17 15 13 16 18 6
28 -14 13 -8 46 6 37 5 -3 11 -1 15 5 4 7 12 7 24 0 10 -5 21 -6 25 -3 3 3 6
1 6 -5 0 -7 4 -12 9 -12 5 0 8 8 7 18 -1 23 -37 44 -53 30 -16 -13 -36 0 -29
18 3 8 1 14 -4 14 -6 0 -10 -9 -10 -20z m80 -25 c0 -2 -9 -3 -19 -2 -11 0 -18
5 -15 9 4 6 34 0 34 -7z"/>
<path d="M327 923 c3 -7 10 -13 16 -13 6 0 3 -6 -8 -13 -11 -9 -14 -16 -8 -20
6 -4 14 1 18 11 14 31 12 48 -6 48 -9 0 -15 -6 -12 -13z"/>
<path d="M290 910 c-8 -5 -17 -7 -20 -5 -4 2 -7 -9 -7 -25 0 -24 3 -28 14 -18
8 6 11 18 8 27 -5 13 -4 13 6 4 10 -10 9 -16 -2 -29 -12 -16 -12 -17 2 -12 9
3 22 2 29 -2 11 -7 11 -11 -1 -26 -12 -16 -12 -17 2 -12 8 3 33 -2 55 -13 21
-10 33 -18 26 -19 -7 0 -10 -5 -6 -12 8 -12 34 16 34 36 0 7 -3 6 -8 -1 -12
-20 -35 2 -36 35 -1 22 3 28 14 24 13 -5 13 -4 0 10 -8 9 -19 13 -25 9 -34
-26 -80 -16 -57 12 10 12 10 16 -1 20 -8 3 -20 1 -27 -3z m86 -61 c10 -17 -13
-36 -27 -22 -12 12 -4 33 11 33 5 0 12 -5 16 -11z"/>
<path d="M350 840 c0 -5 5 -10 10 -10 6 0 10 5 10 10 0 6 -4 10 -10 10 -5 0
-10 -4 -10 -10z"/>
<path d="M215 893 c-7 -20 -6 -23 6 -23 5 0 8 4 5 8 -3 5 1 9 9 9 8 0 15 -4
15 -9 0 -4 -5 -8 -11 -8 -5 0 -8 -4 -5 -8 5 -8 -32 -9 -59 -2 -21 5 -27 -1
-15 -15 13 -15 35 -21 27 -7 -3 4 10 7 28 7 18 0 31 -3 29 -7 -3 -4 4 -5 15
-3 14 2 18 -1 14 -11 -3 -8 -1 -14 5 -14 6 0 9 8 8 18 -2 9 -9 17 -17 17 -8 0
-14 9 -15 20 -1 11 -2 25 -3 31 -2 16 -29 13 -36 -3z"/>
<path d="M296 835 c-3 -8 -1 -15 4 -15 13 0 22 18 11 24 -5 3 -11 -1 -15 -9z"/>
<path d="M440 803 c-13 -27 -25 -56 -27 -67 -3 -16 -1 -17 12 -6 12 10 18 10
32 -1 15 -12 16 -12 11 2 -4 9 -1 22 5 28 8 8 8 11 0 11 -7 0 -15 -4 -18 -10
-9 -14 -28 -12 -22 3 2 6 10 11 17 9 7 -1 9 4 6 15 -3 10 -1 25 5 33 8 11 9 9
4 -10 -7 -24 -6 -24 11 -7 16 15 17 19 3 32 -13 14 -17 10 -39 -32z"/>
<path d="M499 844 c-1 -5 -1 -13 0 -18 1 -5 -5 -16 -14 -26 -11 -13 -13 -20
-5 -25 8 -5 8 -10 0 -20 -8 -9 -6 -14 6 -19 12 -5 15 -2 10 9 -3 9 -2 13 4 10
6 -3 10 -1 10 4 0 6 -6 11 -12 11 -9 0 -8 3 2 9 8 6 18 7 23 4 5 -3 7 0 5 8
-3 8 -12 13 -19 11 -12 -3 -12 -1 -1 10 11 11 15 10 23 -5 6 -9 14 -15 18 -13
4 3 8 -1 8 -8 0 -9 -7 -12 -16 -9 -13 5 -13 3 -4 -7 6 -7 9 -20 6 -29 -4 -14
-3 -14 6 -1 10 13 12 13 21 0 8 -12 9 -9 6 10 -3 14 -5 26 -7 28 -2 3 -6 20
-8 34 0 6 -4 8 -8 5 -3 -4 -17 3 -30 15 -13 12 -24 17 -24 12z"/>
<path d="M183 822 c-18 -9 -33 -20 -33 -24 0 -5 4 -7 9 -3 14 8 23 -12 14 -29
-10 -18 -24 -21 -32 -7 -4 6 -12 2 -19 -9 -7 -12 -8 -20 -2 -20 5 0 10 6 10
13 0 6 6 3 12 -8 19 -33 53 -49 42 -20 -4 8 -11 12 -16 9 -6 -4 -4 4 2 17 18
33 24 38 16 12 -6 -18 -4 -22 7 -17 18 7 17 35 -3 51 -12 9 -12 14 -3 24 10
10 14 7 21 -12 5 -13 7 -31 4 -39 -5 -13 -3 -13 10 -2 11 9 18 10 23 2 3 -6
11 -8 16 -5 5 3 6 -1 3 -10 -4 -10 -2 -14 8 -10 20 8 18 46 -2 40 -9 -3 -25 1
-36 9 -16 12 -17 17 -6 28 11 11 12 10 7 -4 -4 -11 -2 -18 4 -18 6 0 11 5 11
11 0 5 5 7 11 3 8 -5 8 -8 0 -14 -7 -3 2 -7 18 -7 17 0 28 5 24 10 -3 5 4 4
15 -2 11 -6 29 -8 39 -5 15 5 15 4 3 -5 -15 -10 -13 -12 13 -15 6 -1 11 -9 9
-19 -2 -11 2 -15 12 -11 13 5 12 11 -6 35 -12 16 -28 27 -35 25 -7 -3 -13 -2
-13 3 0 4 -16 7 -35 5 -24 -1 -38 3 -45 14 -5 9 -10 13 -10 9 0 -4 -8 -4 -17
1 -12 7 -29 4 -50 -6z"/>
<path d="M310 759 c0 -11 5 -17 10 -14 6 4 7 12 3 18 -4 7 1 6 10 -2 10 -8 15
-21 12 -30 -3 -12 1 -17 15 -17 11 0 20 4 20 8 0 4 -5 8 -11 8 -8 0 -7 6 2 18
7 9 10 14 5 10 -5 -4 -18 -1 -30 7 -28 20 -36 19 -36 -6z"/>
<path d="M515 756 c2 -14 -1 -26 -6 -26 -5 0 -9 -4 -9 -8 0 -4 9 -8 19 -8 14
0 19 6 17 24 -2 12 -7 27 -13 33 -7 7 -10 2 -8 -15z"/>
<path d="M589 774 c0 -5 -2 -20 -4 -34 -2 -20 1 -26 16 -27 10 -1 19 2 19 8 0
5 -5 9 -11 9 -8 0 -8 4 0 14 9 10 8 16 -4 26 -8 7 -15 9 -16 4z"/>
<path d="M64 746 c4 -16 1 -26 -9 -30 -14 -5 -14 -9 1 -31 13 -20 14 -29 5
-38 -10 -9 -11 -8 -6 4 4 10 2 20 -4 24 -7 4 -8 0 -4 -11 4 -10 2 -15 -3 -11
-5 3 -10 -3 -10 -14 0 -10 4 -19 9 -19 4 0 5 -4 2 -10 -11 -18 45 -107 59 -93
3 4 6 2 6 -4 0 -6 7 -14 16 -17 9 -4 13 -2 8 5 -4 8 1 9 16 4 17 -5 21 -4 15
5 -5 8 -4 11 2 7 6 -4 13 0 16 7 4 10 -1 14 -14 13 -10 -1 -19 -5 -19 -10 0
-4 -4 -6 -9 -3 -5 4 -11 3 -14 -1 -2 -5 -2 -2 0 5 2 9 -3 11 -16 7 -22 -7 -49
19 -30 31 8 5 9 3 4 -6 -5 -8 -3 -11 6 -8 19 6 22 88 4 95 -8 3 -12 15 -9 30
3 13 1 22 -4 19 -4 -2 -14 -1 -21 3 -10 6 -9 10 4 14 10 5 14 3 9 -5 -4 -7 -3
-8 4 -4 16 10 15 33 0 39 -10 4 -10 6 0 6 15 1 6 21 -10 21 -6 0 -8 -10 -4
-24z m18 -115 c-11 -7 -11 -9 2 -14 22 -9 20 -24 -5 -38 -13 -6 -19 -7 -15 -1
3 6 0 13 -6 15 -10 4 -9 8 2 16 13 10 13 11 0 11 -13 0 -13 1 0 10 8 5 20 10
25 10 6 0 4 -4 -3 -9z"/>
<path d="M70 600 c0 -5 5 -10 10 -10 6 0 10 5 10 10 0 6 -4 10 -10 10 -5 0
-10 -4 -10 -10z"/>
<path d="M96 755 c-3 -8 -1 -15 4 -15 13 0 22 18 11 24 -5 3 -11 -1 -15 -9z"/>
<path d="M220 745 c-18 -22 -8 -33 12 -13 10 9 13 20 9 23 -5 2 -14 -2 -21
-10z"/>
<path d="M330 743 c0 -6 -12 -11 -27 -12 -16 0 -39 0 -53 -1 -18 0 -21 -3 -12
-9 11 -6 9 -10 -7 -14 -13 -3 -24 1 -29 10 -6 11 -9 5 -10 -18 -1 -24 2 -29 8
-19 8 13 10 13 10 0 1 -20 28 -55 37 -47 3 4 -2 16 -12 27 -15 16 -16 23 -6
33 10 9 16 8 27 -8 15 -19 16 -19 12 5 -2 21 1 25 20 23 15 -2 21 1 16 9 -4 7
-3 8 5 4 6 -4 9 -12 6 -17 -4 -5 -2 -9 3 -9 10 0 24 41 17 49 -3 2 -5 0 -5 -6z"/>
<path d="M631 722 c-11 -21 -3 -65 10 -56 5 3 7 11 3 17 -3 7 3 2 14 -10 20
-23 35 -21 25 3 -3 8 -9 12 -13 9 -14 -9 -23 15 -11 29 11 13 5 26 -10 26 -5
0 -13 -8 -18 -18z m29 4 c0 -2 -8 -10 -17 -17 -16 -13 -17 -12 -4 4 13 16 21
21 21 13z"/>
<path d="M95 712 c-2 -7 0 -10 5 -7 6 3 10 2 10 -4 0 -5 -5 -13 -10 -16 -13
-8 6 -45 23 -45 7 0 6 4 -3 10 -11 7 -11 10 -2 10 7 0 10 5 7 10 -4 6 -11 7
-17 4 -7 -4 -8 -2 -4 5 6 9 11 9 22 0 11 -9 18 -8 31 2 10 9 14 9 10 2 -5 -7
3 -18 20 -28 19 -11 21 -14 7 -10 -14 4 -21 1 -21 -10 0 -9 6 -13 16 -10 9 2
23 0 31 -6 12 -8 11 -9 -5 -5 -16 5 -21 1 -21 -14 0 -11 7 -22 14 -25 10 -4
12 0 8 12 -4 10 -4 14 0 10 4 -4 13 -2 21 4 8 8 13 8 13 1 0 -6 -4 -12 -8 -14
-4 -1 0 -11 10 -21 18 -17 18 -16 15 18 -2 19 2 46 9 60 10 19 10 25 1 24 -25
-3 -38 1 -32 11 3 6 1 10 -4 10 -16 0 -14 -11 6 -32 22 -24 5 -46 -24 -29 -10
6 -14 11 -9 11 12 0 -63 70 -75 70 -6 0 -8 4 -5 8 2 4 -4 8 -14 8 -11 0 -22
-6 -25 -14z m50 -20 c-3 -3 -11 0 -18 7 -9 10 -8 11 6 5 10 -3 15 -9 12 -12z"/>
<path d="M386 714 c-9 -23 -2 -28 13 -10 7 8 8 17 3 20 -6 3 -13 -1 -16 -10z"/>
<path d="M410 705 c-13 -14 -20 -28 -17 -32 4 -3 7 -1 7 6 0 8 7 11 15 7 8 -3
14 0 12 6 -1 7 13 12 32 14 18 1 29 -1 23 -5 -6 -4 -7 -12 -3 -20 7 -10 9 -9
14 3 10 25 -3 49 -18 36 -9 -8 -15 -8 -20 0 -10 15 -19 12 -45 -15z"/>
<path d="M550 716 c0 -8 6 -16 14 -19 10 -4 12 0 9 14 -6 22 -23 26 -23 5z"/>
<path d="M278 702 c8 -5 14 -13 15 -18 1 -5 8 -8 14 -8 7 1 11 -2 8 -6 -3 -4
2 -11 11 -14 12 -5 14 -1 9 17 -5 17 -4 19 4 7 10 -14 15 -7 12 13 -1 5 3 6 9
2 8 -5 8 -11 1 -19 -6 -7 -8 -16 -4 -19 3 -4 1 -7 -5 -7 -7 0 -12 -4 -12 -8 0
-4 9 -8 20 -8 15 0 19 5 14 21 -4 16 -3 17 5 5 14 -20 14 -7 -1 25 -8 18 -16
24 -27 19 -21 -9 -41 -9 -66 0 -14 6 -16 5 -7 -2z"/>
<path d="M502 685 c-13 -28 -32 -34 -32 -10 0 8 -2 15 -4 15 -2 0 -13 3 -23 6
-17 5 -17 5 0 -6 18 -12 15 -30 -6 -30 -7 0 -6 4 3 10 11 7 9 9 -9 7 -17 -1
-28 -11 -35 -29 -8 -20 -15 -26 -28 -22 -10 3 -18 0 -18 -6 0 -6 5 -8 10 -5 6
4 9 1 8 -6 -2 -6 4 -14 12 -17 8 -2 12 -1 8 3 -11 12 11 35 28 28 10 -4 12 0
8 11 -3 9 -11 13 -17 9 -6 -3 -7 -1 -3 5 7 12 31 6 55 -12 12 -9 13 -7 8 7 -4
11 -3 16 3 12 6 -4 26 2 44 13 l34 20 -3 -28 c-3 -19 0 -28 8 -26 7 1 8 1 4
-2 -4 -2 0 -10 10 -18 17 -13 17 -15 0 -28 -10 -8 -14 -16 -10 -18 11 -6 -8
-2 -30 7 -13 6 -16 3 -11 -9 3 -9 10 -14 14 -11 15 9 22 -15 10 -30 -7 -9 -8
-15 -2 -15 12 0 38 30 26 30 -5 0 -2 5 6 10 19 11 23 90 5 96 -6 3 -12 11 -12
19 0 8 4 12 9 9 4 -3 8 -3 8 0 0 5 -54 36 -63 36 -2 0 -9 -11 -15 -25z"/>
<path d="M589 705 c0 -6 -2 -20 -5 -32 -2 -15 3 -26 15 -33 26 -13 28 -13 28
5 0 11 -7 13 -21 9 -21 -6 -21 -6 -1 9 19 15 19 17 3 34 -10 9 -18 13 -19 8z"/>
<path d="M697 683 c-8 -12 5 -28 23 -28 8 0 15 -7 15 -15 0 -8 -8 -14 -18 -14
-10 1 -16 -3 -14 -10 2 -6 8 -11 13 -12 5 0 17 -4 28 -9 12 -5 21 -3 27 6 6 9
9 10 9 2 0 -7 -6 -16 -14 -20 -12 -7 -12 -11 0 -33 l15 -25 -6 25 c-5 19 -4
22 4 10 6 -8 8 -23 5 -33 -5 -16 -3 -17 14 -8 11 6 22 18 26 27 10 26 7 29
-10 8 -8 -10 -13 -14 -10 -8 3 7 -1 14 -9 18 -19 7 -19 26 0 26 8 0 15 5 15
10 0 6 -6 9 -12 8 -7 -2 -12 5 -12 14 1 14 -2 15 -17 5 -10 -6 -15 -15 -12
-21 3 -5 1 -6 -5 -2 -8 4 -8 15 -2 31 7 18 6 25 -2 25 -6 0 -19 7 -29 16 -9 8
-19 11 -22 7z"/>
<path d="M143 663 c-7 -2 -9 -11 -6 -19 3 -7 10 -11 16 -7 5 3 7 1 4 -5 -4 -5
-17 -8 -30 -5 -19 4 -20 3 -4 -7 9 -6 17 -16 17 -23 0 -8 -4 -6 -11 3 -9 13
-10 13 -6 -2 3 -9 3 -19 -1 -21 -4 -2 0 -2 8 1 8 2 21 5 27 5 9 0 12 13 10 38
-4 43 -7 48 -24 42z"/>
<path d="M530 659 c0 -5 -4 -8 -8 -5 -14 9 -54 -25 -48 -41 3 -8 2 -12 -3 -9
-5 3 -11 -1 -15 -9 -7 -20 8 -19 28 1 18 18 22 39 4 28 -7 -4 -8 -3 -4 5 4 6
11 9 16 6 4 -3 11 1 14 7 3 7 4 4 1 -8 -3 -13 0 -21 8 -21 8 0 14 12 14 29 0
15 -2 28 -4 28 -1 0 -3 -5 -3 -11z"/>
<path d="M643 658 c-4 -7 -8 -17 -8 -23 0 -5 -12 -9 -25 -8 -14 1 -20 -1 -13
-3 7 -3 9 -13 6 -22 -4 -15 -3 -15 6 -2 7 9 11 11 11 3 0 -7 -8 -17 -17 -22
-15 -9 -16 -10 -2 -11 9 0 24 9 34 20 11 12 13 20 6 20 -7 0 -9 5 -5 11 5 8 9
8 14 -1 4 -6 7 2 6 19 -1 35 -2 36 -13 19z"/>
<path d="M285 650 c-3 -5 -3 -14 0 -20 3 -5 2 -10 -2 -10 -5 0 -9 -9 -9 -20 0
-11 4 -20 8 -20 5 0 4 -9 -2 -19 -6 -13 -16 -17 -31 -14 -16 4 -17 8 -7 14 9
6 6 9 -12 9 -14 0 -36 1 -50 3 -20 3 -80 -16 -80 -26 0 -1 25 -2 55 -3 35 0
50 3 43 9 -10 6 -9 7 2 4 9 -2 14 -13 12 -28 -4 -24 -3 -24 12 -4 16 20 16 20
31 1 10 -13 15 -15 15 -6 0 7 3 11 6 8 3 -4 -1 -19 -10 -35 -8 -15 -15 -22
-16 -15 0 6 -5 12 -11 12 -20 0 -2 -25 19 -26 12 -1 28 -6 35 -13 8 -6 17 -8
20 -5 3 3 12 2 19 -2 7 -5 18 -9 23 -10 6 -1 37 -9 70 -18 66 -17 97 -7 61 20
-11 7 -22 11 -25 8 -3 -3 3 -12 13 -20 11 -8 15 -14 10 -14 -6 0 -14 3 -18 7
-7 7 -27 12 -61 16 -12 2 -19 9 -17 19 3 19 -25 18 -38 -1 -5 -9 -10 -10 -14
-2 -4 6 -3 11 3 11 6 0 8 7 5 15 -4 8 -10 12 -15 9 -5 -3 -6 -10 -3 -16 4 -7
2 -8 -4 -4 -7 4 -12 1 -12 -6 -1 -7 -7 -2 -15 12 -16 30 -4 50 20 30 8 -7 15
-8 15 -2 0 12 -30 38 -30 26 0 -5 -4 -2 -9 5 -5 8 -6 22 -1 30 4 9 7 34 5 56
-2 22 -1 34 2 27 3 -6 9 -10 14 -7 5 4 6 -2 2 -11 -4 -11 -3 -15 5 -10 6 3 14
1 18 -5 4 -8 3 -9 -4 -5 -7 4 -12 5 -12 2 0 -3 12 -12 28 -21 26 -15 26 -16 2
-9 -24 6 -24 5 -8 -12 16 -17 19 -17 36 -1 10 9 21 14 25 11 4 -4 4 3 2 15 -2
12 0 19 6 16 5 -4 7 -11 4 -16 -10 -15 12 -10 30 7 18 18 16 36 -6 42 -11 3
-11 2 1 -7 16 -11 14 -12 -30 -15 -8 -1 -15 -8 -15 -16 0 -14 -7 -16 -34 -11
-5 0 -13 10 -16 21 -12 38 -47 61 -60 40z m-110 -89 c-9 -8 -36 -10 -30 -2 2
4 11 8 20 8 8 0 13 -3 10 -6z"/>
<path d="M665 632 c6 -16 -46 -80 -61 -75 -6 2 -20 -10 -32 -26 -19 -26 -27
-29 -58 -25 -32 4 -35 2 -24 -11 10 -13 11 -18 1 -28 -10 -9 -11 -9 -6 4 4 10
0 16 -10 16 -22 0 -19 -14 10 -39 16 -14 23 -28 19 -40 -3 -11 0 -19 8 -19 45
-5 56 -7 66 -13 6 -3 14 -1 18 5 5 8 3 9 -6 4 -8 -5 -11 -4 -6 3 3 6 2 13 -4
17 -5 3 -10 1 -10 -6 0 -9 -3 -9 -14 0 -11 9 -15 9 -19 -1 -4 -11 -6 -10 -6 0
-1 7 -6 10 -13 6 -7 -4 -8 -3 -4 5 4 6 12 8 18 5 6 -4 9 -1 7 5 -3 7 -8 12
-13 11 -23 -4 -27 52 -5 66 5 3 6 -3 2 -13 -6 -17 -5 -17 15 0 11 11 26 16 32
12 7 -4 10 0 8 11 -2 10 3 19 10 20 25 3 27 5 12 14 -12 8 -9 10 10 8 16 -2
24 2 23 10 -3 14 14 17 19 2 2 -6 9 -1 17 11 11 19 11 21 -3 16 -22 -9 -20 0
3 13 20 10 24 -2 8 -27 -5 -8 -3 -13 3 -13 6 0 13 7 17 16 5 15 7 15 15 0 5
-9 14 -13 20 -10 6 4 8 3 4 -4 -3 -5 0 -13 6 -15 10 -4 10 -6 1 -6 -7 -1 -10
-7 -7 -15 8 -20 -14 -30 -32 -16 -12 11 -14 9 -11 -11 2 -14 12 -25 23 -27 16
-3 17 -1 4 7 -13 9 -13 11 3 12 9 1 23 2 29 3 17 1 23 36 7 36 -7 0 -10 3 -6
6 9 9 -22 66 -32 60 -5 -3 -16 3 -26 14 -10 12 -13 20 -7 20 7 0 12 4 12 9 0
6 -9 9 -20 8 -13 -1 -19 -6 -15 -15z"/>
<path d="M710 640 c0 -5 5 -10 10 -10 6 0 10 5 10 10 0 6 -4 10 -10 10 -5 0
-10 -4 -10 -10z"/>
<path d="M303 596 c4 -9 2 -26 -3 -36 -8 -15 -6 -20 8 -24 10 -4 26 -21 36
-39 9 -17 14 -24 12 -14 -3 9 -1 17 5 17 6 0 7 5 4 10 -4 6 -12 7 -18 4 -8 -4
-7 -2 1 7 11 12 14 12 21 0 5 -7 6 -23 4 -35 -5 -20 -5 -20 9 -2 8 10 20 16
26 12 14 -9 15 4 2 24 -9 13 -10 13 -10 0 0 -13 -2 -13 -9 -1 -5 8 -7 20 -4
28 4 11 8 10 20 -4 14 -17 14 -17 9 0 -3 10 -2 16 3 12 5 -3 11 -2 14 2 2 5 3
3 1 -3 -1 -6 11 -11 27 -11 21 0 26 4 19 12 -7 8 -5 12 5 12 8 0 12 -4 9 -8
-2 -4 2 -10 8 -12 10 -4 10 -6 1 -6 -7 -1 -10 -8 -7 -16 5 -11 11 -12 25 -4
10 5 19 15 18 22 0 9 -2 9 -6 0 -2 -7 -8 -13 -12 -13 -4 0 -8 6 -8 13 0 6 -4
20 -8 30 -6 15 -4 18 11 17 34 -4 54 0 54 10 0 6 -7 10 -15 10 -8 0 -15 -6
-15 -12 0 -10 -2 -10 -9 0 -10 16 -18 14 -50 -16 -17 -15 -27 -19 -31 -11 -6
8 -13 8 -29 0 -11 -7 -21 -9 -21 -5 0 4 -9 -1 -20 -11 -19 -17 -21 -17 -40 0
-11 10 -18 20 -16 24 2 3 -3 13 -12 21 -14 13 -15 12 -9 -4z m27 -46 c8 -15 8
-18 -3 -14 -8 3 -14 11 -14 19 0 20 4 19 17 -5z"/>
<path d="M835 550 c-8 -16 -29 -37 -45 -45 -17 -9 -30 -21 -30 -28 0 -8 4 -7
10 3 7 11 10 11 10 2 0 -7 5 -10 10 -7 6 4 8 10 5 15 -3 4 2 10 10 13 10 4 12
1 8 -11 -6 -15 -5 -15 10 -3 14 11 20 11 33 0 14 -11 15 -10 12 7 -2 11 2 18
10 17 6 -2 12 2 12 7 0 6 -6 10 -14 10 -8 0 -18 -4 -21 -10 -9 -14 -28 -12
-22 3 2 6 9 11 15 10 5 -1 9 9 8 22 -1 31 -2 31 -21 -5z"/>
<path d="M694 560 c-5 -5 -18 -11 -29 -13 -11 -2 -31 -9 -45 -17 -14 -8 -29
-13 -34 -12 -5 2 -4 -4 4 -12 8 -11 9 -16 1 -16 -6 0 -11 -4 -11 -9 0 -6 9 -9
20 -8 13 1 19 6 15 15 -9 25 6 32 35 17 37 -19 50 -19 24 -1 -15 12 -16 17 -7
27 10 10 16 9 31 -4 21 -20 32 -22 32 -6 0 5 -4 8 -9 5 -5 -3 -11 1 -14 9 -4
10 -1 12 11 9 10 -4 13 -2 7 3 -5 4 -13 11 -16 15 -3 4 -10 3 -15 -2z"/>
<path d="M877 554 c-4 -4 1 -12 10 -19 17 -13 9 -40 -9 -29 -7 4 -8 2 -4 -4
11 -19 -3 -35 -19 -22 -8 7 -20 8 -27 4 -7 -5 -17 -9 -22 -9 -5 0 -11 -6 -13
-12 -3 -7 0 -13 7 -13 6 0 9 4 6 8 -3 5 15 8 39 7 24 -1 42 2 39 6 -3 5 2 6
10 3 9 -3 16 -1 16 6 0 6 -4 8 -10 5 -6 -3 -7 1 -4 9 7 18 23 20 44 5 12 -8
11 -9 -5 -5 -16 5 -21 1 -21 -14 0 -11 4 -20 8 -20 4 0 8 4 8 8 0 5 7 9 15 9
8 0 12 -4 9 -9 -3 -4 -1 -8 5 -8 6 0 15 -9 20 -19 9 -17 8 -18 -12 -14 -21 5
-22 5 -2 -10 15 -12 17 -18 8 -29 -7 -8 -8 -19 -3 -27 4 -8 5 -21 2 -30 -5
-14 -3 -14 11 -2 13 10 20 11 31 2 11 -9 14 -6 14 14 0 21 -3 23 -15 13 -11
-9 -16 -9 -23 1 -9 15 -2 48 11 57 5 3 6 -3 2 -13 -6 -16 -5 -17 12 -3 11 8
16 10 11 3 -5 -9 -2 -11 10 -6 11 4 13 8 6 11 -7 2 -9 9 -6 14 4 6 2 8 -4 5
-16 -11 -42 3 -39 21 1 10 -1 18 -5 20 -5 1 -21 16 -37 32 -15 17 -32 30 -36
30 -4 0 -13 7 -19 16 -6 8 -15 12 -19 8z"/>
<path d="M439 533 c-10 -2 -16 -15 -16 -34 0 -16 3 -25 7 -19 5 8 9 6 14 -6 3
-9 4 -19 1 -22 -3 -3 -5 0 -5 6 0 7 -3 11 -7 11 -20 -3 -34 2 -28 11 3 6 1 10
-4 10 -14 0 -14 -17 0 -26 8 -4 7 -9 -2 -15 -10 -6 -5 -8 14 -5 16 3 27 0 27
-6 0 -6 3 -8 6 -5 10 10 13 78 4 72 -5 -3 -12 0 -16 6 -4 8 -3 9 4 5 7 -4 12
-2 12 3 0 6 5 11 11 11 5 0 7 -4 4 -10 -3 -5 -2 -10 4 -10 17 0 21 18 5 24 -9
3 -16 5 -17 5 -1 -1 -9 -3 -18 -6z"/>
<path d="M186 512 c-4 -11 -12 -23 -19 -25 -7 -2 -4 -3 6 -2 9 2 17 0 17 -4 0
-14 29 -8 35 7 3 8 11 12 19 9 10 -4 12 0 9 14 -6 22 -23 26 -23 4 0 -20 -17
-19 -28 2 -9 14 -10 14 -16 -5z"/>
<path d="M670 519 c0 -5 5 -7 10 -4 6 3 10 8 10 11 0 2 -4 4 -10 4 -5 0 -10
-5 -10 -11z"/>
<path d="M623 482 c0 -23 3 -27 13 -18 6 6 9 15 6 20 -3 5 0 6 7 2 6 -4 8 -12
5 -18 -4 -6 2 -8 17 -3 13 3 20 3 14 -2 -18 -14 -15 -44 4 -38 9 3 26 -1 36
-9 16 -11 17 -17 7 -29 -10 -12 -8 -14 12 -14 22 0 23 1 11 24 -8 14 -11 33
-7 42 5 14 3 14 -10 3 -11 -9 -18 -10 -23 -2 -3 6 -11 8 -16 5 -5 -3 -6 1 -3
9 4 10 -5 20 -25 31 -17 8 -31 12 -31 8 0 -5 -4 -2 -8 5 -6 8 -9 3 -9 -16z"/>
<path d="M298 493 c6 -2 9 -10 6 -15 -4 -7 -2 -8 5 -4 13 9 5 26 -12 25 -9 0
-8 -2 1 -6z"/>
<path d="M535 473 c-20 -17 -20 -17 3 -40 13 -14 26 -22 29 -19 3 3 -2 12 -10
21 -17 16 -12 49 5 39 6 -4 5 -10 -3 -15 -8 -5 -12 -9 -9 -10 3 0 13 -2 22 -4
14 -3 15 1 6 21 -13 28 -16 29 -43 7z"/>
<path d="M728 468 c-10 -9 -13 -20 -8 -23 5 -3 11 -1 15 5 9 15 27 1 21 -16
-3 -8 -1 -14 4 -14 5 0 7 -6 4 -14 -3 -8 -1 -17 4 -20 13 -8 42 3 42 15 0 10
-22 8 -31 -4 -3 -4 -6 6 -6 23 0 22 3 27 10 18 6 -9 7 -8 3 5 -3 10 -6 20 -6
23 0 2 -6 1 -14 -2 -8 -3 -16 1 -18 8 -2 11 -7 10 -20 -4z"/>
<path d="M599 468 c-1 -5 -2 -14 -3 -20 -1 -7 -8 -12 -15 -10 -14 3 -8 -12 17
-40 7 -9 11 -21 8 -26 -7 -12 13 -10 33 2 11 7 11 10 0 17 -11 6 -11 11 -1 21
6 6 12 21 12 32 0 20 -15 13 -15 -7 0 -7 -9 -10 -20 -9 -16 3 -18 1 -7 -9 6
-7 12 -17 12 -23 0 -5 -7 -1 -15 10 -12 16 -12 21 0 30 9 7 10 15 4 25 -5 8
-9 11 -10 7z"/>
<path d="M810 443 c-22 -15 -27 -35 -9 -30 26 5 18 -23 -11 -38 -17 -9 -28
-20 -25 -25 9 -14 25 -12 23 3 -2 6 3 11 10 9 7 -1 15 5 18 13 7 17 25 21 22
4 -2 -6 2 -13 7 -15 6 -2 11 7 11 20 1 17 -3 23 -11 19 -8 -2 -19 5 -25 17 -8
15 -8 20 -1 16 6 -4 11 -2 11 3 0 6 5 11 10 11 6 0 9 -5 8 -11 -2 -6 3 -14 11
-17 8 -2 11 0 7 6 -3 6 -1 14 5 18 8 5 9 3 4 -7 -7 -11 -5 -11 10 1 15 12 17
12 10 1 -6 -11 -4 -13 9 -8 9 4 15 3 12 -2 -3 -5 2 -12 11 -15 21 -8 5 -26
-25 -29 -15 -1 -20 -7 -18 -21 1 -11 8 -22 14 -24 7 -2 10 3 6 11 -8 23 16 31
34 12 10 -10 11 -15 5 -11 -15 8 -18 -10 -3 -19 6 -4 8 -11 5 -16 -7 -10 -3
-10 62 -13 23 -2 40 1 37 6 -3 4 2 5 10 2 19 -7 20 0 5 27 -5 11 -14 17 -20
14 -5 -4 -7 -11 -4 -16 11 -17 -6 -31 -21 -18 -11 9 -17 9 -28 0 -10 -9 -16
-9 -21 -1 -4 6 -4 14 -1 17 3 3 1 12 -6 20 -8 10 -8 17 0 25 16 16 15 28 -3
28 -20 0 -19 17 3 29 20 12 17 13 -66 15 -40 1 -70 -3 -82 -11z"/>
<path d="M830 420 c0 -5 5 -10 11 -10 5 0 7 5 4 10 -3 6 -8 10 -11 10 -2 0 -4
-4 -4 -10z"/>
<path d="M870 405 c-6 -15 -8 -30 -5 -35 9 -14 -15 -23 -30 -10 -9 8 -15 8
-20 0 -3 -6 -11 -7 -17 -4 -6 4 -8 2 -4 -4 13 -22 -18 -25 -35 -3 -10 12 -20
17 -24 11 -3 -5 -1 -10 6 -10 7 0 9 -3 5 -7 -4 -5 -14 1 -22 11 -10 15 -11 23
-2 33 15 18 -3 31 -41 29 -33 -1 -39 -21 -7 -21 14 -1 22 3 20 7 -3 4 -1 8 4
8 5 0 9 -14 9 -30 0 -17 -4 -26 -7 -19 -6 8 -9 7 -13 -2 -4 -11 -6 -11 -6 -1
-1 7 -6 10 -13 6 -7 -4 -8 -3 -4 4 4 7 3 12 -3 12 -14 0 -23 -17 -13 -24 5 -3
24 -8 42 -11 18 -3 37 -8 42 -11 4 -3 16 -7 25 -9 10 -2 28 -7 41 -11 13 -4
22 -2 22 5 0 6 -7 8 -17 4 -15 -6 -16 -5 -3 9 14 15 16 14 26 -9 7 -17 14 -22
18 -14 4 7 2 20 -6 29 -12 15 -11 16 5 3 10 -8 16 -20 13 -28 -3 -7 2 -13 12
-14 23 -2 24 -2 47 7 l20 7 -20 -16 c-20 -16 -20 -16 3 -12 12 2 22 -1 22 -7
0 -6 10 -8 26 -4 18 5 24 3 18 -5 -4 -7 -2 -10 7 -7 8 3 28 -1 46 -9 40 -16
56 -17 47 -1 -4 7 -3 8 4 4 16 -10 15 10 -1 26 -10 10 -11 16 -3 23 14 13 66
15 66 3 0 -5 5 -6 10 -3 6 4 7 11 4 17 -4 7 -2 8 5 4 6 -4 9 -12 6 -17 -4 -5
-2 -9 4 -9 25 0 19 21 -11 36 -18 9 -39 24 -46 33 -8 9 -11 10 -7 4 4 -8 -4
-18 -19 -24 -13 -6 -22 -17 -20 -24 3 -7 -1 -17 -8 -21 -17 -11 -128 -12 -129
-2 -1 4 -2 14 -3 21 -1 6 -10 12 -21 12 -11 0 -25 3 -31 7 -15 10 -11 54 4 51
7 -2 12 1 12 7 0 5 8 7 18 3 22 -8 14 1 -16 16 -20 11 -23 9 -32 -14z m268
-63 c8 -6 2 -9 -18 -9 -20 0 -26 3 -18 9 7 4 15 8 18 8 3 0 11 -4 18 -8z
m-247 -25 c-1 -12 -15 -9 -19 4 -3 6 1 10 8 8 6 -3 11 -8 11 -12z m124 -37 c3
-6 -1 -7 -9 -4 -18 7 -21 14 -7 14 6 0 13 -4 16 -10z m38 -3 c-4 -6 0 -8 10
-4 11 4 14 2 11 -8 -5 -11 -10 -12 -25 -2 -23 14 -24 24 -4 24 8 0 11 -5 8
-10z"/>
<path d="M675 380 c3 -5 8 -10 11 -10 2 0 4 5 4 10 0 6 -5 10 -11 10 -5 0 -7
-4 -4 -10z"/>
<path d="M1001 381 c-8 -6 -9 -11 -3 -15 6 -3 14 -1 17 5 9 14 2 20 -14 10z"/>
<path d="M1030 380 c0 -5 5 -10 11 -10 5 0 7 5 4 10 -3 6 -8 10 -11 10 -2 0
-4 -4 -4 -10z"/>
<path d="M910 359 c0 -5 5 -7 10 -4 6 3 10 8 10 11 0 2 -4 4 -10 4 -5 0 -10
-5 -10 -11z"/>
<path d="M1103 303 c-9 -3 -10 -10 -3 -23 5 -10 7 -26 4 -34 -3 -9 -1 -16 6
-16 6 0 9 4 6 9 -4 5 0 12 6 14 10 4 9 8 -2 17 -13 10 -13 11 2 7 9 -3 19 -3
21 1 2 4 2 1 0 -7 -2 -7 2 -21 9 -30 12 -14 11 -14 -4 -2 -11 8 -18 9 -18 3 0
-17 12 -22 85 -36 6 -1 16 -5 23 -9 7 -5 12 -4 12 2 0 6 -5 11 -11 11 -6 0 -8
7 -5 16 3 8 2 12 -4 9 -6 -3 -10 -1 -10 6 0 8 -7 6 -19 -5 -17 -16 -19 -15
-35 8 -9 15 -12 27 -6 31 14 9 12 22 -2 22 -7 0 -20 3 -28 6 -8 3 -21 3 -27 0z"/>
<path d="M1226 285 c4 -8 11 -15 16 -15 6 0 5 6 -2 15 -7 8 -14 15 -16 15 -2
0 -1 -7 2 -15z"/>
</g>
</svg>
